<?xml version="1.0" encoding="UTF-8"?>
<svg width="837px" height="699px" viewBox="0 0 837 699" version="1.1" xmlns="http://www.w3.org/2000/svg" xmlns:xlink="http://www.w3.org/1999/xlink">
    <!-- Generator: Sketch 55.2 (78181) - https://sketchapp.com -->
    <title>Group</title>
    <desc>Created with Sketch.</desc>
    <g id="Page-1" stroke="none" stroke-width="1" fill="none" fill-rule="evenodd">
        <g id="design05" transform="translate(-425.000000, -186.000000)">
            <g id="Group" transform="translate(843.500000, 535.500000) scale(1, -1) translate(-843.500000, -535.500000) translate(425.000000, 186.000000)">
                <rect id="Rectangle" fill="#AE3750" transform="translate(453.500000, 222.500000) rotate(755.000000) translate(-453.500000, -222.500000) " x="452" y="-48" width="3" height="541"></rect>
                <rect id="Rectangle-Copy" fill="#546867" transform="translate(470.000000, 257.500000) rotate(36.000000) translate(-470.000000, -257.500000) " x="469" y="-48" width="2" height="611"></rect>
                <rect id="Rectangle-Copy-2" fill="#DC459D" transform="translate(287.000000, 274.000000) rotate(237.000000) translate(-287.000000, -274.000000) " x="286" y="-67" width="2" height="682"></rect>
                <rect id="Rectangle-Copy-3" fill="#E7A02E" transform="translate(481.000000, 420.500000) rotate(-12.000000) translate(-481.000000, -420.500000) " x="480" y="142" width="2" height="557"></rect>
                <rect id="Rectangle-Copy-4" fill="#E54137" transform="translate(486.000000, 391.500000) rotate(45.000000) translate(-486.000000, -391.500000) " x="485" y="113" width="2" height="557"></rect>
                <rect id="Rectangle-Copy-5" fill="#39ADAD" transform="translate(501.000000, 328.500000) rotate(46.000000) translate(-501.000000, -328.500000) " x="500" y="110" width="2" height="437"></rect>
                <rect id="Rectangle-Copy-8" fill="#C74832" transform="translate(499.000000, 630.500000) rotate(95.000000) translate(-499.000000, -630.500000) " x="498" y="412" width="2" height="437"></rect>
                <rect id="Rectangle-Copy-6" fill="#F0D3AB" transform="translate(501.000000, 360.500000) rotate(78.000000) translate(-501.000000, -360.500000) " x="500" y="142" width="2" height="437"></rect>
                <rect id="Rectangle-Copy-7" fill="#D24F92" transform="translate(514.000000, 325.500000) rotate(54.000000) translate(-514.000000, -325.500000) " x="513" y="-38" width="2" height="727"></rect>
                <rect id="Rectangle-Copy-9" fill="#D24F92" transform="translate(539.000000, 375.500000) rotate(10.000000) translate(-539.000000, -375.500000) " x="538" y="52" width="2" height="647"></rect>
                <rect id="Rectangle-Copy-10" fill="#C93C29" transform="translate(546.000000, 385.500000) rotate(-37.000000) translate(-546.000000, -385.500000) " x="545" y="102" width="2" height="567"></rect>
                <rect id="Rectangle-Copy-11" fill="#D24F92" transform="translate(546.000000, 375.500000) rotate(-89.000000) translate(-546.000000, -375.500000) " x="545" y="92" width="2" height="567"></rect>
                <rect id="Rectangle-Copy-12" fill="#DB6A89" transform="translate(551.000000, 380.500000) rotate(35.000000) translate(-551.000000, -380.500000) " x="550" y="52" width="2" height="657"></rect>
                <rect id="Rectangle-Copy-13" fill="#F13A25" transform="translate(558.000000, 357.500000) rotate(241.000000) translate(-558.000000, -357.500000) " x="557" y="70" width="2" height="575"></rect>
                <rect id="Rectangle-Copy-14" fill="#E7CE3C" transform="translate(558.000000, 327.500000) rotate(187.000000) translate(-558.000000, -327.500000) " x="557" y="40" width="2" height="575"></rect>
                <rect id="Rectangle-Copy-15" fill="#DE3B6F" transform="translate(567.000000, 414.500000) rotate(189.000000) translate(-567.000000, -414.500000) " x="566" y="127" width="2" height="575"></rect>
                <rect id="Rectangle-Copy-16" fill="#F9D023" transform="translate(570.000000, 434.000000) rotate(53.000000) translate(-570.000000, -434.000000) " x="569" y="151" width="2" height="566"></rect>
                <rect id="Rectangle-Copy-18" fill="#DE3B6F" transform="translate(579.000000, 414.500000) rotate(210.000000) translate(-579.000000, -414.500000) " x="578" y="127" width="2" height="575"></rect>
                <rect id="Rectangle-Copy-17" fill="#FFE781" transform="translate(576.000000, 427.500000) rotate(78.000000) translate(-576.000000, -427.500000) " x="575" y="161" width="2" height="533"></rect>
                <rect id="Rectangle-Copy-19" fill="#E7DFBC" transform="translate(582.000000, 416.500000) rotate(34.000000) translate(-582.000000, -416.500000) " x="581" y="150" width="2" height="533"></rect>
            </g>
        </g>
    </g>
</svg>